<?xml version="1.0" encoding="UTF-8" standalone="no"?>
<!-- Created with Inkscape (http://www.inkscape.org/) -->

<svg
   xmlns:dc="http://purl.org/dc/elements/1.1/"
   xmlns:cc="http://creativecommons.org/ns#"
   xmlns:rdf="http://www.w3.org/1999/02/22-rdf-syntax-ns#"
   xmlns:svg="http://www.w3.org/2000/svg"
   xmlns="http://www.w3.org/2000/svg"
   xmlns:sodipodi="http://sodipodi.sourceforge.net/DTD/sodipodi-0.dtd"
   xmlns:inkscape="http://www.inkscape.org/namespaces/inkscape"
   id="svg3039"
   version="1.1"
   inkscape:version="0.48.1 r9760"
   width="1182.4636"
   height="155.8558"
   sodipodi:docname="AA_Logotype100_RGB.jpg">
  <metadata
     id="metadata3045">
    <rdf:RDF>
      <cc:Work
         rdf:about="">
        <dc:format>image/svg+xml</dc:format>
        <dc:type
           rdf:resource="http://purl.org/dc/dcmitype/StillImage" />
        <dc:title></dc:title>
      </cc:Work>
    </rdf:RDF>
  </metadata>
  <defs
     id="defs3043" />
  <sodipodi:namedview
     pagecolor="#ffffff"
     bordercolor="#666666"
     borderopacity="1"
     objecttolerance="10"
     gridtolerance="10"
     guidetolerance="10"
     inkscape:pageopacity="0"
     inkscape:pageshadow="2"
     inkscape:window-width="1214"
     inkscape:window-height="730"
     id="namedview3041"
     showgrid="false"
     fit-margin-top="1"
     fit-margin-left="1"
     fit-margin-right="1"
     fit-margin-bottom="1"
     inkscape:zoom="1.88"
     inkscape:cx="380.66633"
     inkscape:cy="79.245014"
     inkscape:window-x="0"
     inkscape:window-y="0"
     inkscape:window-maximized="0"
     inkscape:current-layer="svg3039" />
  <path
     style="fill:#ff0000"
     d="m 26.240306,153.91736 c -12.310284,-1.8041 -21.3102039,-8.23401 -23.9497589,-17.11069 -1.76375302,-5.9314 -1.70632702,-26.99964 0.09047,-33.1906 3.377104,-11.63599 6.006242,-17.15527 35.4402759,-18.34765 8.12741,-0.32925 35.37637,0.0595 44.57374,0.27065 11.247064,0 13.773909,4.421586 18.916027,6.76065 -0.0555,-0.70028 0.82244,-11.63797 -0.15395,-15.25034 -0.58881,-2.17841 -4.069087,-6.07489 -10.435847,-7.04062 -13.8451,-0.67573 8.35117,-0.37711 -42.43624,0.0948 -1.41931,1.3334 -4.597931,4.883741 -6.304901,6.81247 C 40.849823,78.19317 42.173163,78 23.865376,78 L 4.2671891,78 4.9707041,71.75 C 6.4658721,58.46697 12.294473,50.89491 23.705872,47.41066 c 3.807081,-1.16242 7.141831,-2.74383 20.139961,-2.92247 63.260417,0.0113 0.133,0.14959 63.302477,-0.0465 8.20156,0.25156 10.33307,2.07633 13.46234,3.34165 11.96741,4.83902 19.02631,14.40721 20.81841,28.21938 1.33371,27.35738 1.00932,48.65852 1.03452,76.99728 -12.66667,0 -25.33333,0 -38,0 l 0,-5.5 c 0,-3.025 -0.26845,-5.5 -0.59655,-5.5 -0.3281,0 -2.58918,1.75398 -5.024617,3.89774 -5.73485,5.04802 -10.12333,7.07194 -17.71598,8.17042 -7.61219,1.10131 -47.08229,0.99287 -54.886107,-0.1508 z m 70.002427,-26.3698 c 5.023817,-2.09922 6.220827,-3.93636 6.220827,-9.54756 -1.23922,-14.74541 -45.648607,-11.84641 -60.249997,-5.99533 -3.64088,4.00746 -3.86406,10.6001 -0.46688,13.79158 3.67797,3.45528 9.02536,4.1326 30.21688,3.82741 16.48956,-0.23747 20.75109,-0.60188 24.27917,-2.0761 z m 98.608887,26.44764 c -22.87696,-3.1582 -33.98501,-13.02888 -38.53438,-34.24188 -0.63498,-2.9608 -0.88881,-12.81124 -0.63381,-24.59601 0.37426,-17.2961 0.69111,-20.3362 2.63784,-25.3091 4.57148,-11.67777 10.77174,-17.9545 21.80886,-22.07781 5.52904,-2.06557 7.75824,-2.19821 42.72117,-2.54196 40.44382,-0.39764 46.61396,0.12063 56.37105,4.73501 12.45861,5.89199 17.38438,13.8835 18.05153,29.28655 l 0.42229,9.75 c -12.71851,0 -25.43701,0 -38.15552,0 l -1.02731,-3.81513 c -2.18411,-8.11118 -6.93175,-10.17712 -25.04978,-10.90046 -21.25323,-0.8485 -31.44946,1.40361 -36.39547,8.03892 -1.89005,2.5356 -2.10453,4.16621 -2.10453,16 0,10.62032 0.33658,13.79189 1.73491,16.34783 4.21788,7.70966 11.87134,9.72348 34.78247,9.15219 14.0472,-0.35028 15.98945,-0.62078 20.5,-2.85514 4.36187,-2.16071 5.16949,-3.05933 6.48262,-7.21296 l 1.5,-4.74475 c 12.57754,-0.003 25.15507,-0.007 37.73261,-0.01 l -0.43253,9.75 c -0.67435,15.20072 -5.9434,24.20118 -17.67017,30.18372 -9.51925,4.85636 -13.72942,5.36026 -47.12991,5.64073 -17.325,0.14549 -34.25037,-0.11518 -37.61194,-0.57925 z m 166.8382,-0.0778 c -15.00589,-2.30392 -23.86961,-7.87146 -29.22626,-18.3578 l -3.5,-6.85171 C 328.74045,110.80526 328.51735,92.90263 328.29424,75 c -6.61023,0 -13.22045,0 -19.83068,0 0,-9.666667 0,-19.333333 0,-29 6.66667,0 13.33333,0 20,0 l 0,-12.5 0,-12.5 c 13.33333,0 26.66667,0 40,0 l 0,12.5 0,12.5 c 21,0 42,0 63,0 0,9.666667 0,19.333333 0,29 -21,0 -42,0 -63,0 1.26849,46.50404 -0.24372,-0.04933 1.08049,46.1504 1.66077,3.10318 7.11423,4.84976 15.13739,4.84805 12.53669,-0.003 16.58841,-3.69655 16.72568,-15.24845 l 0.0564,-4.75 17,0 17,0 -0.006,10.25 c -0.007,12.04223 -0.91558,15.90974 -5.27135,22.42731 -3.96637,5.9349 -10.81029,10.62983 -19.5714,13.42599 -5.53386,1.76617 -9.67655,2.17791 -24.65167,2.45012 -9.9,0.17996 -20.82318,-0.10625 -24.27374,-0.63602 z m 180.27374,0.45676 c -10.66112,-2.0994 -13.51592,-2.87261 -16.84941,-4.56357 -5.5952,-2.83824 -11.89619,-9.00989 -14.4793,-14.18206 -3.8087,-7.62619 -5.13573,-16.68432 -5.14637,-35.12853 -0.0145,-25.11642 2.20171,-34.99383 9.79097,-43.63753 3.85115,-4.38622 12.9488,-9.282 19.98333,-10.75377 8.34535,-1.74601 84.23054,-1.47633 90.99139,0.32337 11.7093,3.11695 19.41198,9.17139 23.63221,18.5753 3.82339,8.51964 4.57901,14.29961 4.55982,34.87912 -0.0179,19.22282 -1.25203,28.8662 -4.49719,35.14164 -2.69779,5.21695 -9.55188,11.97184 -14.89498,14.6794 -8.86064,4.49002 -16.86202,5.23007 -55.59047,5.14158 -19.525,-0.0446 -36.4,-0.25834 -37.5,-0.47495 z m 63.5,-31.57386 c 1.925,-0.8484 4.625,-2.76098 6,-4.25017 2.39605,-2.59504 2.51233,-3.31769 2.79647,-17.37888 0.33498,-16.5775 -0.62999,-20.06431 -6.48854,-23.44545 -4.35902,-2.51572 -20.07667,-4.06009 -34.30793,-3.37101 -22.88092,1.10791 -27.98149,5.79881 -27.99442,25.74599 -0.01,15.13293 3.76581,20.86807 15.71192,23.8663 6.2144,1.55968 40.12345,0.66623 44.2825,-1.16678 z m 245.77674,31.16959 c -7.31462,-1.13911 -14.83282,-4.37487 -18.10556,-7.79246 -1.41017,-1.47259 -3.57962,-4.92743 -4.82099,-7.67743 -1.97614,-4.37772 -2.26171,-6.68015 -2.29454,-18.5 -0.0357,-12.83974 0.10138,-13.78372 2.80193,-19.30099 6.32436,-12.92081 19.85355,-16.37318 60.50666,-15.44005 22.78695,0.52304 29.11741,1.57896 34.40596,5.73894 1.39989,1.10115 2.81178,2.0021 3.13753,2.0021 1.20668,0 0.54304,-13.18206 -0.82895,-16.4657 -2.67851,-6.41058 -5.30502,-7.0343 -29.62167,-7.0343 -18.89139,0 -21.87413,0.21695 -24.23412,1.76265 -1.48018,0.96946 -2.97216,2.88196 -3.31552,4.25 L 868.24674,78 c -12.89632,0 -25.79263,0 -38.68895,0 l 0.54244,-5.25 c 1.30258,-12.60709 5.69317,-19.92485 14.13316,-23.55564 8.92366,-3.83885 15.81293,-4.32394 56.73017,-3.99446 38.3563,0.30886 39.0975,0.35322 44.9055,2.6871 8.0855,3.24906 15.6052,10.7378 18.6901,18.613 3.43232,86.48874 -0.11587,-0.773774 3.0455,86.5 -12.7137,0 -25.4274,0 -38.1411,0 l 0,-5.5 c 0,-3.025 -0.2714,-5.5 -0.60307,-5.5 -0.33169,0 -2.8093,1.98359 -5.5058,4.40797 -8.17535,7.35035 -10.61033,7.84279 -40.39113,8.16869 -14.3,0.15648 -28.57547,-0.11656 -31.72326,-0.60677 z m 64.22326,-25.01147 c 7.58979,-1.19856 11.13053,-3.43116 12.38642,-7.81019 1.47918,-5.15764 -0.28571,-9.33601 -4.90329,-11.60843 -3.40929,-1.67779 -6.64837,-2.01722 -22.48313,-2.35607 -28.34987,-0.60665 -34.63134,1.31938 -35.70709,10.94857 -0.64118,5.73925 2.07711,9.38302 7.98822,10.70792 5.78336,1.29625 34.75139,1.37641 42.71887,0.1182 z m 160.63044,24.98121 c -21.2141,-2.46284 -32.807,-9.14138 -37.7767,-21.76281 -2.5934,-18.92255 -5.8587,-35.595803 -1.858,-57.56059 2.9195,-14.83941 10.6761,-22.65756 27.0643,-27.27911 21.8763,-2.89368 31.6288,-1.826699 56.44,-1.83712 l 6.6085,3.13127 c 7.1891,3.40633 11.2289,7.70322 13.2005,14.04047 0.9852,3.16691 1.2365,-1.82947 1.4547,-28.92174 l 0.2636,-32.75 19.9864,0 19.9863,0 c 0,50.666667 0,101.33333 0,152 l -19,0 -19,0 -0.044,-9.75 -0.044,-9.75 -2.0661,4 c -4.7808,9.25538 -11.6828,13.92228 -23.7828,16.081 -8.1631,1.45634 -30.3246,1.64817 -41.4323,0.35863 z m 58.6393,-31.31524 c 6.8705,-3.40997 8.1836,-6.47612 8.567,-20.00527 0.4076,-14.38112 -0.1263,-17.62137 -3.5798,-21.72566 -4.4203,-5.25327 -7.9227,-6.12486 -26.7569,-6.65859 -18.6914,-0.52969 -29.4777,0.62177 -33.4683,3.5728 -4.7803,3.53503 -5.5157,6.50055 -5.5033,22.19233 0.013,16.23531 1.0722,19.6584 6.9277,22.38518 5.0971,2.37365 6.3202,2.47169 28.5439,2.28794 18.7676,-0.15517 21.9791,-0.41553 25.2697,-2.04873 z M 669.46356,46 l 19.96107,0 19.96106,0 0.28894,8.58877 0.28893,8.58876 3.24081,-4.60496 c 4.2087,-5.98026 10.79803,-10.07993 19.31479,-12.01702 9.03715,-2.05546 36.71595,-2.09892 46.27919,-0.0727 18.24871,3.86651 28.22418,13.0594 32.12393,29.60375 2.43196,29.08627 1.52745,43.92713 1.5413,76.9134 -13.3081,0 -26.61621,0 -39.92431,0 -0.19189,-22.62371 -0.38379,-45.24742 -0.57569,-67.87113 l -2.95961,-3.08795 c -4.39068,-4.58104 -10.67704,-6.04187 -25.97189,-6.03534 -7.18768,0.003 -14.8685,0.49035 -17.0685,1.08286 -6.30728,1.69869 -11.16755,5.60342 -13.96689,11.22096 l -2.53311,5.08329 c 0,19.8691 0,39.73821 0,59.60731 -13.33333,0 -26.66667,0 -40,0 -2e-5,-35.66667 -2e-5,-71.333333 -2e-5,-107 z m 313,0 c 13.33335,0 26.66674,0 40.00004,0 0,35.666667 0,71.33333 0,107 -13.3333,0 -26.66669,0 -40.00004,0 0,-35.66667 0,-71.333333 0,-107 z m -531,76 c 13,0 26,0 39,0 0,10 0,20 0,30 -13,0 -26,0 -39,0 0,-10 0,-20 0,-30 z m 0,-76 c 13,0 26,0 39,0 0,20.666667 0,41.333333 0,62 -13,0 -26,0 -39,0 0,-20.666667 0,-41.333333 0,-62 z m 531,-45 c 13.33335,0 26.66674,0 40.00004,0 0,10.333333 0,20.666667 0,31 -13.3333,0 -26.66669,0 -40.00004,0 0,-10.333333 0,-20.666667 0,-31 z"
     id="path3049"
     inkscape:connector-curvature="0"
     sodipodi:nodetypes="ssssccsccsscssccscccssssssccsssccsssssscccssssssscccsscccscccccccccccccccscccssssccsssssssssssssssssscsssssssssssssscccsssscccssssscssssscscccccscccccccccsccscssscssscccccssssccccsssccccccccccccccccccccccccc" />
</svg>
