<?xml version="1.0" encoding="utf-8"?>
<!-- Generator: Adobe Illustrator 26.0.1, SVG Export Plug-In . SVG Version: 6.00 Build 0)  -->
<svg version="1.1" id="Layer_1" xmlns="http://www.w3.org/2000/svg" xmlns:xlink="http://www.w3.org/1999/xlink" x="0px" y="0px"
	 viewBox="0 0 351 309.1" style="enable-background:new 0 0 351 309.1;" xml:space="preserve">
<style type="text/css">
	.st0{fill:#2A613E;}
	.st1{fill-rule:evenodd;clip-rule:evenodd;fill:url(#SVGID_1_);}
	.st2{fill-rule:evenodd;clip-rule:evenodd;fill:url(#SVGID_00000042010577021685438120000012248139999452773019_);}
	.st3{fill-rule:evenodd;clip-rule:evenodd;fill:url(#SVGID_00000056398384851798606220000000956576902029009803_);}
	.st4{fill-rule:evenodd;clip-rule:evenodd;fill:url(#SVGID_00000150812127467650393440000002231905622641041056_);}
	.st5{fill-rule:evenodd;clip-rule:evenodd;fill:url(#SVGID_00000158720298615853576250000017225453270152950207_);}
	.st6{fill-rule:evenodd;clip-rule:evenodd;fill:url(#SVGID_00000160890904588739991860000012436237236209181592_);}
	.st7{fill-rule:evenodd;clip-rule:evenodd;fill:url(#SVGID_00000148650692227339342220000009401674699724700603_);}
	.st8{fill-rule:evenodd;clip-rule:evenodd;fill:url(#SVGID_00000164512440172418988890000006583281972134661792_);}
	.st9{fill:#B98F3D;}
</style>
<g id="Layer_x0020_1">
	<g id="_2194136857696">
		<g>
			<path class="st0" d="M260.1,118.4c-12.8-4.8-17.3-10.4-17.3-10.4s-4.4,5.6-17.3,10.4c-9.2,3.4-18,9.4-18,26v10.2v0v10.2
				c0,16.6,8.8,22.6,18,26c12.8,4.8,17.3,10.4,17.3,10.4s4.4-5.6,17.3-10.4c9.2-3.4,18-9.4,18-26v-10.2v0v-10.2
				C278.1,127.8,269.3,121.8,260.1,118.4z"/>
			
				<linearGradient id="SVGID_1_" gradientUnits="userSpaceOnUse" x1="19674.752" y1="-15331.1504" x2="19674.752" y2="-18625.5762" gradientTransform="matrix(2.834645e-02 0 0 -2.834645e-02 -314.8157 -326.3102)">
				<stop  offset="0" style="stop-color:#BF9442"/>
				<stop  offset="0.502" style="stop-color:#F4E6BC"/>
				<stop  offset="1" style="stop-color:#B98F3D"/>
			</linearGradient>
			<path class="st1" d="M272.7,164.7v-20.3c0-12.9-5.8-17.7-14.4-20.9l0,0c-7.3-2.7-12.3-5.8-15.3-8.1c-3.1,2.4-8,5.4-15.4,8.1
				c-8.7,3.2-14.4,8-14.4,20.9l0,0v10.2v10.2c0,12.9,5.8,17.7,14.4,20.9l0,0c7.3,2.7,12.3,5.8,15.4,8.1l0,0c3.1-2.4,8-5.4,15.4-8.1
				l0,0C266.9,182.4,272.7,177.6,272.7,164.7z M228.1,184c-8.2-3.1-13.3-7.3-13.3-19.3l0,0v-10.2v-10.2c0-11.9,5.1-16.2,13.3-19.3
				l0,0c5.7-2.1,10.7-4.7,14.8-7.6l0,0c4,2.9,9.1,5.5,14.8,7.6l0,0c8.2,3.1,13.3,7.3,13.3,19.3l0,0v10.2v10.2
				c0,11.9-5.1,16.2-13.3,19.3l0,0c-5.7,2.1-10.7,4.7-14.8,7.6l0,0C238.9,188.7,233.8,186.1,228.1,184L228.1,184z"/>
			
				<linearGradient id="SVGID_00000126296582554095977750000003207081717061799050_" gradientUnits="userSpaceOnUse" x1="19674.7285" y1="-15331.1357" x2="19674.7285" y2="-18625.5605" gradientTransform="matrix(2.834645e-02 0 0 -2.834645e-02 -314.8157 -326.3102)">
				<stop  offset="0" style="stop-color:#BF9442"/>
				<stop  offset="0.502" style="stop-color:#F4E6BC"/>
				<stop  offset="1" style="stop-color:#B98F3D"/>
			</linearGradient>
			<path style="fill-rule:evenodd;clip-rule:evenodd;fill:url(#SVGID_00000126296582554095977750000003207081717061799050_);" d="
				M242.9,126.6L242.9,126.6C242.9,126.6,242.8,126.6,242.9,126.6L242.9,126.6c-0.1,0.1-0.1,0.2-0.2,0.2l0,0c-0.3,0.6-0.6,1.3-0.7,2
				l0,0c0,0-0.1,0.1-0.1,0l0,0c-0.9-0.6-2.1-0.9-3.3-0.9l0,0c-1.2,0-2.3,0.3-3.2,0.8l0,0c-0.1,0,0,0.1,0,0.1l0,0
				c1.4,0.1,2.6,0.5,3.6,1.2l0,0c0.1,0,0,0.1-0.1,0.1l0,0c-0.2,0-0.5,0-0.7,0l0,0c-3.7,0-6.9,2.1-8,4.9l0,0c0,0.1,0.1,0.1,0.1,0.1
				l0,0c1.9-1.5,4.5-2.5,7.4-2.5l0,0c0,0,0,0,0,0l0,0c0.1,0,0.1,0.1,0,0.1l0,0c-3.9,0.8-7,3.4-7.8,6.7l0,0c0,0.1,0.1,0.1,0.1,0.1
				l0,0c1.6-1.5,3.7-2.8,6.1-3.6l0,0c0.1,0,0.1,0.1,0.1,0.1l0,0c-2.4,2.2-3.9,5.1-3.9,8.4l0,0c0,0.1,0,0.2,0,0.4l0,0
				c0,0.1,0.1,0.1,0.1,0l0,0c1-2,2.5-3.7,4.3-5.2l0,0c0.1,0,0.1,0,0.1,0.1l0,0c-0.5,1.5-0.8,3-0.9,4.7l0,0c0,1.4,0.2,2.7,0.5,4l0,0
				c0,0.1,0.1,0.1,0.1,0l0,0c0.5-2.6,1.7-5,3.3-7.1l0,0c0-0.1,0.2,0,0.1,0.1l0,0c-0.3,1-0.4,2.1-0.4,3.2l0,0c0,1.9,0.4,3.7,1.2,5.4
				l0,0c0,0.1,0.1,0,0.1,0l0,0c0-0.7,0.1-1.3,0.3-2l0,0c0.1,1.1,0.1,2.3,0.2,3.4l0,0c0,0,0,0,0,0l0,0h0c0,0,0,0,0,0l0,0
				c-0.1,0-0.2,0-0.3,0l0,0c0,0,0,0,0,0l0,0c0.1,1.2,0.2,2.3,0.3,3.5l0,0c0,0,0,0,0,0l0,0c0,0,0,0-0.1,0l0,0c0,0,0,0,0,0l0,0
				c-0.1,0-0.2,0-0.3,0l0,0c0,0,0,0,0,0l0,0c0.1,1.2,0.2,2.3,0.3,3.5l0,0c0,0,0,0,0,0l0,0c-0.1,0-0.1,0-0.2,0l0,0c0,0,0,0,0,0l0,0
				c-0.1,0-0.2,0-0.3,0l0,0c0,0,0,0,0,0l0,0c0.1,1.2,0.2,2.3,0.4,3.5l0,0c0,0,0,0,0,0l0,0c-0.1,0-0.1,0-0.2,0l0,0c0,0,0,0,0,0l0,0
				c-0.1,0-0.2,0-0.3,0l0,0c0,0,0,0,0,0l0,0c0.1,1.2,0.4,3.4,0.4,3.4l0,0l1.9,1.5l1.9-1.4c0,0,0.3-2.3,0.4-3.5l0,0c0,0,0,0,0,0l0,0
				c-0.1,0-0.2,0-0.3,0l0,0c0,0,0,0,0,0l0,0c-0.1,0-0.1,0-0.2,0l0,0c0,0,0,0,0,0l0,0c0.1-1.2,0.2-2.3,0.4-3.5l0,0c0,0,0,0,0,0l0,0
				c-0.1,0-0.2,0-0.3,0l0,0c0,0,0,0,0,0l0,0c-0.1,0-0.1,0-0.2,0l0,0c0,0,0,0,0,0l0,0c0.1-1.2,0.2-2.3,0.3-3.5l0,0c0,0,0,0,0,0l0,0
				c-0.1,0-0.2,0-0.3,0l0,0c0,0,0,0,0,0l0,0c0,0-0.1,0-0.1,0l0,0c0,0,0,0,0,0l0,0c0.1-1.2,0.2-2.3,0.3-3.5l0,0c0,0,0,0,0,0l0,0
				c-0.1,0-0.2,0-0.3,0l0,0c0,0,0,0,0,0l0,0h0c0,0,0,0,0,0l0,0c0.1-1.1,0.1-2.3,0.2-3.4l0,0c0.2,0.6,0.3,1.3,0.3,2l0,0
				c0,0.1,0.1,0.1,0.1,0l0,0c0.8-1.7,1.2-3.5,1.2-5.4l0,0c0-1.1-0.2-2.1-0.4-3.2l0,0c0-0.1,0.1-0.1,0.1-0.1l0,0
				c1.6,2.1,2.8,4.5,3.3,7.1l0,0c0,0.1,0.1,0.1,0.1,0l0,0c0.4-1.3,0.5-2.6,0.5-4l0,0c0-1.6-0.3-3.2-0.9-4.7l0,0
				c0-0.1,0.1-0.1,0.1-0.1l0,0c1.8,1.5,3.3,3.2,4.3,5.2l0,0c0,0.1,0.1,0,0.1,0l0,0c0-0.1,0-0.2,0-0.4l0,0c0-3.3-1.5-6.2-3.9-8.4l0,0
				c-0.1-0.1,0-0.1,0.1-0.1l0,0c2.4,0.8,4.5,2,6.1,3.6l0,0c0,0,0.1,0,0.1-0.1l0,0c-0.8-3.3-3.9-5.9-7.8-6.7l0,0
				c-0.1,0-0.1-0.1,0-0.1l0,0h0c2.9-0.1,5.6,0.9,7.5,2.5l0,0c0.1,0,0.1,0,0.1-0.1l0,0c-1.1-2.8-4.3-4.9-8-4.9l0,0
				c-0.2,0-0.5,0-0.7,0l0,0c-0.1,0-0.1-0.1-0.1-0.1l0,0c1-0.7,2.3-1.2,3.6-1.2l0,0c0.1,0,0.1-0.1,0-0.1l0,0c-0.9-0.5-2-0.9-3.2-0.8
				l0,0c-1.2,0-2.3,0.4-3.3,0.9l0,0c0,0-0.1,0-0.1,0l0,0c-0.1-0.7-0.4-1.4-0.7-2l0,0C243,126.8,243,126.7,242.9,126.6L242.9,126.6
				C242.9,126.6,242.9,126.6,242.9,126.6L242.9,126.6L242.9,126.6z"/>
			
				<linearGradient id="SVGID_00000164485888252736624590000005850422019381588620_" gradientUnits="userSpaceOnUse" x1="19264.7812" y1="-15334.8242" x2="19264.7812" y2="-18623.9531" gradientTransform="matrix(2.834645e-02 0 0 -2.834645e-02 -314.8157 -326.3102)">
				<stop  offset="0" style="stop-color:#BF9442"/>
				<stop  offset="0.502" style="stop-color:#F4E6BC"/>
				<stop  offset="1" style="stop-color:#B98F3D"/>
			</linearGradient>
			<path style="fill-rule:evenodd;clip-rule:evenodd;fill:url(#SVGID_00000164485888252736624590000005850422019381588620_);" d="
				M233.3,173.6c-1.9,0.8-3.1,1-3.8,1l0,0c-0.8,0-1.1-0.1-1.2-0.2l0,0c-0.1-0.1-0.2-0.2-0.3-0.3l0,0c0,0-0.1-0.1-0.3-0.1l0,0
				c-0.1,0-0.1,0.1-0.2,0.1l0,0c-0.1,0.1-0.1,0.2-0.1,0.3l0,0c0,0.1,0.1,0.2,0.1,0.3l0,0c0,0,0.1,0.1,0.2,0.1l0,0
				c0.1,0,0.1,0.1,0.2,0.1l0,0c0.1,0.1,0.3,0.1,0.5,0.1l0,0c0.2,0,0.3,0.1,0.5,0.1l0,0c0.2,0,0.4,0,0.6,0l0,0c0.4,0,0.9-0.1,1.3-0.2
				l0,0c0.9-0.2,2-0.6,3-1.1l0,0c0.4-0.2,0.8-0.4,1.2-0.6l0,0c0-0.1-0.3-0.3-0.3-0.4l0,0C234.2,173.2,233.7,173.4,233.3,173.6
				C233.3,173.6,233.3,173.6,233.3,173.6z"/>
			
				<linearGradient id="SVGID_00000060732934940150369370000006319014912959961791_" gradientUnits="userSpaceOnUse" x1="19268.9004" y1="-15331.2646" x2="19268.9004" y2="-18625.5332" gradientTransform="matrix(2.834645e-02 0 0 -2.834645e-02 -314.8157 -326.3102)">
				<stop  offset="0" style="stop-color:#BF9442"/>
				<stop  offset="0.502" style="stop-color:#F4E6BC"/>
				<stop  offset="1" style="stop-color:#B98F3D"/>
			</linearGradient>
			<path style="fill-rule:evenodd;clip-rule:evenodd;fill:url(#SVGID_00000060732934940150369370000006319014912959961791_);" d="
				M234,174.3c-1.1,0.5-2.2,0.8-3.1,1l0,0c-0.2,0-0.5,0.1-0.7,0.1l0,0c-0.2,0-0.4,0-0.7,0.1l0,0c-0.4,0-0.8,0-1.2-0.1l0,0
				c-0.2,0-0.3-0.1-0.5-0.2l0,0c-0.1,0-0.1-0.1-0.2-0.1l0,0c-0.1,0-0.1-0.1-0.2-0.1l0,0c0-0.1-0.1-0.1-0.1-0.2l0,0
				c0-0.1,0-0.1,0-0.2l0,0c0-0.1,0.1-0.2,0.1-0.3l0,0c0.1-0.1,0.1-0.1,0.2-0.1l0,0c0.1,0,0.1,0,0.1,0l0,0c-0.3-0.2-0.7-0.2-1-0.1
				l0,0c-1.1,0.5-0.8,1.7-0.6,2l0,0c0.3,0.7,1,1.2,1.9,1.4l0,0c0.4,0.1,0.8,0.1,1.2,0.1l0,0c1.7,0,4.1-0.7,6.8-2l0,0
				c0.1-0.1,0.2-0.1,0.3-0.2l0,0h0c0.1,0,0.3-0.2,0.3-0.2c-0.1-0.1-0.4-0.4-0.6-0.7l0,0c-0.3-0.3-0.6-0.7-0.8-0.8
				C235.4,173.7,234.5,174.1,234,174.3L234,174.3L234,174.3z"/>
			
				<linearGradient id="SVGID_00000159462930122012958290000010961823205831409322_" gradientUnits="userSpaceOnUse" x1="19967.5586" y1="-15352.9668" x2="19967.5586" y2="-18604.9492" gradientTransform="matrix(2.834645e-02 0 0 -2.834645e-02 -314.8157 -326.3102)">
				<stop  offset="0" style="stop-color:#BF9442"/>
				<stop  offset="0.502" style="stop-color:#F4E6BC"/>
				<stop  offset="1" style="stop-color:#B98F3D"/>
			</linearGradient>
			<path style="fill-rule:evenodd;clip-rule:evenodd;fill:url(#SVGID_00000159462930122012958290000010961823205831409322_);" d="
				M263.8,156.3c-2.1,0.1-4.2,0.7-6.5,1.6l0,0c-2.7,1.2-5.3,3-8.4,5.3l0,0c-3.4,2.6-6.4,5-9.1,6.8l0,0c-1.4,0.9-2.6,1.6-3.8,2.2l0,0
				c-1.4-1.6-1.2-2.6-1.2-2.6l0,0c-0.6-0.4-1.1-0.2-1.1-0.2l0,0c-0.9,0.7,0,1.8,1.1,2.9l0,0c0.1,0.1,0.6,0.6,0.6,0.6l0,0
				c0.1,0.1,0.9,1,1.1,1.3l0,0c0,0,0.1,0.2,0.1,0.2l0,0c0.9,1.5,0,2.6,0,2.6l0,0c0.7,0.8,1.1,0.5,1.1,0.5l0,0c0.8-0.5,0.7-1.8,0-3
				l0,0c3.7-2,8-5,12.8-9l0,0c1.2-1,2.3-1.8,3.5-2.6l0,0c2.1-1.6,4.3-2.7,6.3-3.7l0,0c3.7-1.7,7.7-2.4,8.5-2.3l0,0
				c0.1,0,0.1-0.1,0-0.1l0,0c0,0,0,0-0.1,0l0,0c-0.1,0-0.5-0.2-0.9-0.3l0,0c-0.9-0.3-2-0.4-3.1-0.4l0,0
				C264.6,156.3,264.2,156.3,263.8,156.3z M249.2,163.5c0.2-0.1,0.3-0.2,0.5-0.3l0,0c0.2-0.1,0.3-0.2,0.5-0.3l0,0
				c0.1-0.1,0.3-0.2,0.5-0.3l0,0c0.3-0.2,0.6-0.4,0.9-0.7l0,0c0.6-0.4,1.2-0.8,1.8-1.3l0,0c0.6-0.4,1.2-0.8,1.8-1.1l0,0
				c1.2-0.7,2.5-1.3,3.7-1.8l0,0c0.1,0,0.2-0.1,0.2-0.1l0,0c0,0,0.1,0,0.1,0l0,0l0.1,0c0.1,0,0.2-0.1,0.2-0.1l0,0
				c0.1,0,0.2,0,0.2-0.1l0,0c0,0,0.1,0,0.1,0l0,0c0,0,0.1,0,0.1,0l0,0c0.1,0,0.2,0,0.2-0.1l0,0c0.1,0,0.1,0,0.2-0.1l0,0
				c0,0,0.1,0,0.1,0l0,0c0,0,0.1,0,0.1,0l0,0c0.1,0,0.1,0,0.2-0.1l0,0c0.1,0,0.1,0,0.2-0.1l0,0c0,0,0.1,0,0.1,0l0,0c0,0,0.1,0,0.1,0
				l0,0c0.1,0,0.1,0,0.2,0l0,0c0.3-0.1,0.6-0.1,0.9-0.2l0,0c0.6-0.1,1.1-0.2,1.6-0.2l0,0c0.5,0,1.1,0,1.5,0l0,0
				c0.5,0,0.9,0.1,1.4,0.1l0,0c-0.4,0-0.9-0.1-1.4-0.1l0,0c-0.5,0-0.9,0-1.5,0.1l0,0c-0.5,0-1,0.1-1.6,0.2l0,0
				c-0.3,0.1-0.6,0.1-0.8,0.2l0,0c-0.1,0-0.1,0-0.2,0.1l0,0c0,0-0.1,0-0.1,0l0,0c0,0-0.1,0-0.1,0l0,0c-0.1,0-0.1,0-0.2,0.1l0,0
				c-0.1,0-0.1,0-0.2,0.1l0,0c0,0-0.1,0-0.1,0l0,0c0,0-0.1,0-0.1,0l0,0c-0.1,0-0.1,0-0.2,0.1l0,0c-0.1,0-0.1,0-0.2,0.1l0,0
				c0,0-0.1,0-0.1,0l0,0l-0.1,0c-0.1,0-0.1,0-0.2,0.1l0,0c-0.1,0-0.1,0.1-0.2,0.1l0,0c0,0-0.1,0-0.1,0l0,0c0,0-0.1,0-0.1,0l0,0
				c-0.1,0-0.1,0.1-0.2,0.1l0,0c-3.9,1.3-8.6,5-10.1,6l0,0C249,163.7,249.1,163.6,249.2,163.5C249.2,163.5,249.2,163.5,249.2,163.5z
				"/>
			
				<linearGradient id="SVGID_00000018924875469487211520000010146043683199909282_" gradientUnits="userSpaceOnUse" x1="20084.6699" y1="-15334.8242" x2="20084.6699" y2="-18623.9531" gradientTransform="matrix(2.834645e-02 0 0 -2.834645e-02 -314.8157 -326.3102)">
				<stop  offset="0" style="stop-color:#BF9442"/>
				<stop  offset="0.502" style="stop-color:#F4E6BC"/>
				<stop  offset="1" style="stop-color:#B98F3D"/>
			</linearGradient>
			<path style="fill-rule:evenodd;clip-rule:evenodd;fill:url(#SVGID_00000018924875469487211520000010146043683199909282_);" d="
				M250.7,173.4c0.4,0.2,0.8,0.4,1.2,0.6l0,0c1.1,0.5,2.1,0.8,3,1.1l0,0c0.5,0.1,0.9,0.2,1.3,0.2l0,0c0.2,0,0.4,0,0.6,0l0,0
				c0.2,0,0.4,0,0.5-0.1l0,0c0.2,0,0.3-0.1,0.5-0.1l0,0c0.1,0,0.1-0.1,0.2-0.1l0,0c0.1,0,0.1-0.1,0.2-0.1l0,0
				c0.1-0.1,0.1-0.2,0.1-0.3l0,0c0-0.1,0-0.2-0.1-0.3l0,0c-0.1-0.1-0.1-0.1-0.2-0.1l0,0c-0.2,0-0.3,0.1-0.3,0.1l0,0
				c-0.1,0.1-0.2,0.2-0.3,0.3l0,0c-0.1,0-0.4,0.2-1.2,0.2l0,0c-0.7,0-1.9-0.2-3.8-1l0,0c-0.5-0.2-0.9-0.4-1.4-0.6l0,0
				C251.1,173,250.8,173.3,250.7,173.4L250.7,173.4L250.7,173.4z"/>
			
				<linearGradient id="SVGID_00000144316751248884665310000017384530906041188002_" gradientUnits="userSpaceOnUse" x1="20080.5801" y1="-15331.2646" x2="20080.5801" y2="-18625.5332" gradientTransform="matrix(2.834645e-02 0 0 -2.834645e-02 -314.8157 -326.3102)">
				<stop  offset="0" style="stop-color:#BF9442"/>
				<stop  offset="0.502" style="stop-color:#F4E6BC"/>
				<stop  offset="1" style="stop-color:#B98F3D"/>
			</linearGradient>
			<path style="fill-rule:evenodd;clip-rule:evenodd;fill:url(#SVGID_00000144316751248884665310000017384530906041188002_);" d="
				M249.6,174.5c-0.2,0.3-0.5,0.5-0.6,0.7c0,0,0.3,0.1,0.3,0.2l0,0h0c0.1,0.1,0.2,0.1,0.3,0.2l0,0c2.7,1.3,5.1,2,6.8,2l0,0
				c0.4,0,0.8,0,1.2-0.1l0,0c0.9-0.2,1.6-0.7,1.9-1.4l0,0c0.1-0.3,0.5-1.5-0.6-2l0,0c-0.4-0.2-0.7-0.1-1,0.1l0,0c0,0,0.1,0,0.1,0
				l0,0c0.1,0,0.2,0.1,0.2,0.1l0,0c0.1,0.1,0.1,0.2,0.1,0.3l0,0c0,0.1,0,0.1,0,0.2l0,0c0,0.1-0.1,0.1-0.1,0.2l0,0
				c-0.1,0.1-0.1,0.1-0.2,0.1l0,0c-0.1,0-0.1,0.1-0.2,0.1l0,0c-0.1,0.1-0.3,0.1-0.5,0.2l0,0c-0.3,0.1-0.7,0.1-1.2,0.1l0,0
				c-0.2,0-0.4,0-0.7-0.1l0,0c-0.2,0-0.5-0.1-0.7-0.1l0,0c-1-0.2-2-0.5-3.1-1l0,0c-0.5-0.2-1.3-0.6-1.3-0.6
				C250.2,173.8,249.9,174.2,249.6,174.5L249.6,174.5L249.6,174.5z"/>
			
				<linearGradient id="SVGID_00000021113504522419815750000008746545580796539562_" gradientUnits="userSpaceOnUse" x1="19381.9141" y1="-15352.9668" x2="19381.9141" y2="-18604.9492" gradientTransform="matrix(2.834645e-02 0 0 -2.834645e-02 -314.8157 -326.3102)">
				<stop  offset="0" style="stop-color:#BF9442"/>
				<stop  offset="0.502" style="stop-color:#F4E6BC"/>
				<stop  offset="1" style="stop-color:#B98F3D"/>
			</linearGradient>
			<path style="fill-rule:evenodd;clip-rule:evenodd;fill:url(#SVGID_00000021113504522419815750000008746545580796539562_);" d="
				M217.8,156.7c-0.4,0.1-0.8,0.2-0.9,0.3l0,0c0,0,0,0-0.1,0l0,0c-0.1,0,0,0.1,0,0.1l0,0c0.8-0.1,4.8,0.6,8.5,2.3l0,0
				c2,0.9,4.2,2.1,6.3,3.7l0,0c1.1,0.8,2.3,1.6,3.5,2.6l0,0c4.9,4,9.2,7.1,12.8,9l0,0c-0.7,1.2-0.8,2.5,0,3l0,0c0,0,0.4,0.4,1.1-0.5
				l0,0c0,0-0.9-1.1,0-2.6l0,0c0,0,0.1-0.2,0.1-0.2l0,0c0.2-0.3,1-1.2,1.1-1.3l0,0c0,0,0.5-0.5,0.6-0.6l0,0c1.1-1.1,2-2.2,1.1-2.9
				l0,0c0,0-0.5-0.3-1.1,0.2l0,0c0,0,0.2,1-1.2,2.6l0,0c-1.2-0.6-2.5-1.4-3.8-2.2l0,0c-2.7-1.8-5.7-4.2-9.1-6.8l0,0
				c-3.1-2.3-5.7-4.1-8.4-5.3l0,0c-2.2-1-4.4-1.5-6.5-1.6l0,0c-0.4,0-0.8,0-1.1,0l0,0C219.7,156.3,218.7,156.4,217.8,156.7z
				 M220.3,156.5c0.5,0,1,0,1.5,0l0,0c0.5,0,1.1,0.1,1.6,0.2l0,0c0.3,0,0.6,0.1,0.9,0.2l0,0c0.1,0,0.1,0,0.2,0l0,0c0,0,0.1,0,0.1,0
				l0,0c0,0,0.1,0,0.1,0l0,0c0.1,0,0.1,0,0.2,0.1l0,0c0.1,0,0.1,0,0.2,0.1l0,0c0,0,0.1,0,0.1,0l0,0c0,0,0.1,0,0.1,0l0,0
				c0.1,0,0.1,0,0.2,0.1l0,0c0.1,0,0.1,0,0.2,0.1l0,0c0,0,0.1,0,0.1,0l0,0c0,0,0.1,0,0.1,0l0,0c0.1,0,0.2,0,0.2,0.1l0,0
				c0.1,0,0.1,0.1,0.2,0.1l0,0l0.1,0c0,0,0.1,0,0.1,0l0,0l0.2,0.1c1.2,0.5,2.5,1.1,3.7,1.8l0,0c0.6,0.4,1.2,0.7,1.8,1.1l0,0
				c0.6,0.4,1.2,0.8,1.8,1.3l0,0c0.3,0.2,0.6,0.4,0.9,0.7l0,0c0.2,0.1,0.3,0.2,0.5,0.3l0,0c0.2,0.1,0.3,0.2,0.5,0.3l0,0
				c0.2,0.1,0.3,0.2,0.5,0.3l0,0c0.1,0.1,0.3,0.2,0.4,0.3l0,0c-1.5-1-6.2-4.7-10.1-6l0,0c-0.1,0-0.2-0.1-0.2-0.1l0,0
				c0,0-0.1,0-0.1,0l0,0c0,0-0.1,0-0.1,0l0,0c-0.1,0-0.2-0.1-0.2-0.1l0,0c-0.1,0-0.1,0-0.2-0.1l0,0l-0.1,0c0,0-0.1,0-0.1,0l0,0
				c-0.1,0-0.1,0-0.2-0.1l0,0c-0.1,0-0.1,0-0.2-0.1l0,0c0,0-0.1,0-0.1,0l0,0c0,0-0.1,0-0.1,0l0,0c-0.1,0-0.1,0-0.2-0.1l0,0
				c-0.1,0-0.1,0-0.2-0.1l0,0c0,0-0.1,0-0.1,0l0,0c0,0-0.1,0-0.1,0l0,0c-0.1,0-0.1,0-0.2-0.1l0,0c-0.3-0.1-0.6-0.1-0.8-0.2l0,0
				c-0.6-0.1-1.1-0.2-1.6-0.2l0,0C221.3,156.6,220.8,156.6,220.3,156.5L220.3,156.5c-0.4,0.1-0.9,0.1-1.4,0.1l0,0
				C219.3,156.6,219.8,156.5,220.3,156.5C220.3,156.5,220.3,156.5,220.3,156.5z"/>
		</g>
		<g>
			<path class="st0" d="M96.8,126.3c0.8,0,1.4-0.2,1.9-0.7c0.5-0.5,0.7-1.1,0.7-1.8c0-0.8-0.2-1.4-0.7-1.9c-0.5-0.5-1.1-0.7-1.9-0.7
				c-0.7,0-1.3,0.2-1.8,0.7c-0.5,0.5-0.7,1.1-0.7,1.9c0,0.7,0.2,1.3,0.7,1.8C95.4,126,96,126.3,96.8,126.3z"/>
			<path class="st0" d="M132.8,126.3c0.8,0,1.4-0.2,1.9-0.7c0.5-0.5,0.7-1.1,0.7-1.8c0-0.8-0.2-1.4-0.7-1.9
				c-0.5-0.5-1.1-0.7-1.9-0.7c-0.7,0-1.3,0.2-1.8,0.7c-0.5,0.5-0.7,1.1-0.7,1.9c0,0.7,0.2,1.3,0.7,1.8
				C131.5,126,132.1,126.3,132.8,126.3z"/>
			<path class="st0" d="M138.4,126.3c0.8,0,1.4-0.2,1.9-0.7c0.5-0.5,0.7-1.1,0.7-1.8c0-0.8-0.2-1.4-0.7-1.9
				c-0.5-0.5-1.1-0.7-1.9-0.7c-0.7,0-1.3,0.2-1.8,0.7c-0.5,0.5-0.7,1.1-0.7,1.9c0,0.7,0.2,1.3,0.7,1.8
				C137.1,126,137.7,126.3,138.4,126.3z"/>
			<path class="st0" d="M164.8,152.1h-9v-5.6c0-2.2,0.7-4,2.1-5.2c0.4-0.3,0.8-0.6,1.4-0.9c0.8-0.4,1.7-0.7,2.5-0.9l2.9-0.6V152.1z
				 M169.8,131.5c-0.7,0.4-3,1.6-9.4,3c-2.5,0.5-4.7,1.6-6.4,3.3c-2.2,2.2-3.3,5.1-3.3,8.6v10.7c0,0.1,0.1,0.2,0.2,0.2h14.1
				c0,2.8-2.3,5.1-5.1,5.1h-8.5c-0.1,0-0.2,0.1-0.1,0.2l1.9,4.8c0.1,0.1,0.2,0.2,0.4,0.2l6.4,0c5.7,0,10.3-4.6,10.3-10.3v-25.7
				C170,131.5,169.9,131.4,169.8,131.5z"/>
			<path class="st0" d="M140.2,152.1h-9v-5.6c0-2.2,0.7-4,2.1-5.2c0.4-0.3,0.9-0.6,1.4-0.9c0.8-0.4,1.7-0.7,2.5-0.9l2.9-0.6V152.1z
				 M145.1,131.5c-0.7,0.4-3,1.6-9.4,3c-2.5,0.5-4.7,1.6-6.4,3.3c-2.2,2.2-3.3,5.1-3.3,8.6v5.7h-9v-30.9c0-0.1-0.1-0.2-0.2-0.1
				l-4.9,1.8c-0.1,0-0.1,0.1-0.1,0.1v34.1c0,0.1,0.1,0.2,0.2,0.2h14.2h14.1h5c0.1,0,0.2-0.1,0.2-0.2v-1v-24.5
				C145.4,131.5,145.2,131.4,145.1,131.5z"/>
			<path class="st0" d="M101.3,152.1h-8.6h-0.4v-5.6c0-2.2,0.7-4,2.1-5.2c0.4-0.3,0.8-0.6,1.4-0.9c0.8-0.4,1.7-0.7,2.5-0.9l2.9-0.6
				V152.1z M106.3,131.5c-0.7,0.4-3,1.6-9.4,3c-2.5,0.5-4.7,1.6-6.4,3.3c-2.2,2.2-3.3,5.1-3.3,8.6v5.7h-3.8h-0.8
				c-0.9-0.1-1.8-0.5-2.5-1c-1.3-1-1.9-2.6-1.9-4.7v-9.7c0-0.1-0.1-0.1-0.2-0.1l-5,1.4c-0.1,0-0.1,0.1-0.1,0.1v9.1
				c0,3.2,1,5.8,3.1,7.6c1.6,1.4,3.3,2.2,5.3,2.4h1.6h12.6h10.8c0.1,0,0.2-0.1,0.2-0.2v-25.5C106.5,131.5,106.4,131.4,106.3,131.5z"
				/>
			<path class="st0" d="M180.2,122.3l-4.9,1.8c-0.1,0-0.1,0.1-0.1,0.1v32.9c0,0.1,0.1,0.2,0.2,0.2h4.9c0.1,0,0.2-0.1,0.2-0.2v-34.7
				C180.4,122.4,180.3,122.3,180.2,122.3z"/>
			<path class="st0" d="M175.3,122.5l5-1.9c0,0,0.1-0.1,0.1-0.1v-1.9c0-0.1-0.1-0.1-0.1-0.1l-5,1.9c0,0-0.1,0.1-0.1,0.1v1.9
				C175.2,122.5,175.3,122.6,175.3,122.5z"/>
			<path class="st0" d="M180.4,114v2c0,0.1,0,0.2-0.1,0.2c-0.3,0.2-1.1,0.7-1.9,0.9c-1.7,0.5-1.4,2.5-0.2,2.2c1.1-0.3-2,2.2-2,2.2
				c0,0,0.1-0.9,0.1-0.9s-1.1-0.8-1.1-1.9c0-1.2,0.6-2.5,2.9-3.2c1.4-0.5,2-1.1,2.2-1.4C180.3,113.9,180.4,113.9,180.4,114z"/>
			<path class="st9" d="M93.6,174.2c0.2,0,0.4-0.1,0.5-0.2c0.1-0.1,0.2-0.3,0.2-0.5c0-0.2-0.1-0.4-0.2-0.5c-0.1-0.1-0.3-0.2-0.5-0.2
				c-0.2,0-0.4,0.1-0.5,0.2c-0.1,0.1-0.2,0.3-0.2,0.5c0,0.2,0.1,0.4,0.2,0.5C93.2,174.1,93.4,174.2,93.6,174.2z"/>
			<path class="st9" d="M91.7,174.2c0.2,0,0.4-0.1,0.5-0.2c0.1-0.1,0.2-0.3,0.2-0.5c0-0.2-0.1-0.4-0.2-0.5c-0.1-0.1-0.3-0.2-0.5-0.2
				c-0.2,0-0.4,0.1-0.5,0.2c-0.1,0.1-0.2,0.3-0.2,0.5c0,0.2,0.1,0.4,0.2,0.5C91.4,174.1,91.5,174.2,91.7,174.2z"/>
			<path class="st9" d="M111.2,178c0,1-0.2,1.7-0.6,2.1c-0.2,0.2-0.5,0.3-0.9,0.3h-0.3h-0.1h-0.3v-9.8l-1.2,0.6v9.1h-1.8v-5.3
				l-1.2,0.6v4.7h-0.4c-0.2,0-0.4-0.1-0.8-0.3l-0.8,0.9c0.5,0.4,1,0.7,1.6,0.7h5h0.1h0.2c0.7,0,1.3-0.2,1.8-0.7c0.7-0.6,1-1.6,1-3
				v-7.4l-1.2,0.6C111.2,171.3,111.2,178,111.2,178z"/>
			<path class="st9" d="M119.4,174.2c0.2,0,0.4-0.1,0.5-0.2c0.1-0.1,0.2-0.3,0.2-0.5c0-0.2-0.1-0.4-0.2-0.5
				c-0.1-0.1-0.3-0.2-0.5-0.2c-0.2,0-0.4,0.1-0.5,0.2c-0.1,0.1-0.2,0.3-0.2,0.5c0,0.2,0.1,0.4,0.2,0.5
				C119,174.1,119.2,174.2,119.4,174.2z"/>
			<path class="st9" d="M121.4,174.2c0.2,0,0.4-0.1,0.5-0.2c0.1-0.1,0.2-0.3,0.2-0.5c0-0.2-0.1-0.4-0.2-0.5
				c-0.1-0.1-0.3-0.2-0.5-0.2c-0.2,0-0.4,0.1-0.5,0.2c-0.1,0.1-0.2,0.3-0.2,0.5c0,0.2,0.1,0.4,0.2,0.5
				C121,174.1,121.2,174.2,121.4,174.2z"/>
			<path class="st9" d="M128.8,180.4h-3v-3.4c0,0,1.5-0.1,2.3,0.8c0.4,0.4,0.7,1.3,0.7,2V180.4z M121.7,180.4h-3v-0.7
				c0-0.7,0.3-1.5,0.7-2c0.9-0.9,2.3-0.8,2.3-0.8V180.4z M130,179.7c0-1,0.1-2-0.8-2.9c-0.6-0.6-1.8-0.9-2.6-1
				c-0.7-0.1-1.3-0.3-2-0.6l-0.1-0.1v5.3h-1.6v-5.3l-0.1,0.1c-0.6,0.3-1.3,0.5-2,0.6c-0.8,0.1-1.9,0.4-2.6,1c-1,1-0.8,1.9-0.8,2.9
				v1.9h0.1h0H130h0v-0.4l0-0.9h0V179.7z"/>
			<path class="st9" d="M142.3,178c0,1-0.2,1.7-0.6,2.1c-0.2,0.2-0.5,0.3-0.9,0.3h-0.3h-0.1h-4.2H136v-0.7c0-0.7,0.2-1.6,0.6-2.1
				c0.9-0.9,3.6-0.8,3.6-0.8v-1.8l-0.1,0.1c-0.6,0.3-1.3,0.5-2,0.6c-0.8,0.1-1.9,0.4-2.6,1c-1,1-0.8,2-0.8,3v0.6h-0.8h-0.1h-1v-9.7
				l-1.2,0.6v10.2h2.2h0.1h6.5h0.1h0.2c0.7,0,1.3-0.2,1.8-0.7c0.7-0.6,1-1.6,1-3v-7.4l-1.2,0.6L142.3,178L142.3,178z"/>
			<polygon class="st9" points="144.9,181.7 146.1,181.7 146.1,170.6 144.9,171.3 			"/>
			<path class="st9" d="M152.2,174.2c0.2,0,0.4-0.1,0.5-0.2c0.1-0.1,0.2-0.3,0.2-0.5c0-0.2-0.1-0.4-0.2-0.5
				c-0.1-0.1-0.3-0.2-0.5-0.2c-0.2,0-0.4,0.1-0.5,0.2c-0.1,0.1-0.2,0.3-0.2,0.5c0,0.2,0.1,0.4,0.2,0.5
				C151.9,174.1,152,174.2,152.2,174.2z"/>
			<path class="st9" d="M154.2,174.2c0.2,0,0.4-0.1,0.5-0.2c0.1-0.1,0.2-0.3,0.2-0.5c0-0.2-0.1-0.4-0.2-0.5
				c-0.1-0.1-0.3-0.2-0.5-0.2c-0.2,0-0.4,0.1-0.5,0.2c-0.1,0.1-0.2,0.3-0.2,0.5c0,0.2,0.1,0.4,0.2,0.5
				C153.9,174.1,154,174.2,154.2,174.2z"/>
			<path class="st9" d="M162.9,182.8c-0.2,0-0.4,0.1-0.5,0.2c-0.1,0.1-0.2,0.3-0.2,0.5c0,0.2,0.1,0.4,0.2,0.5
				c0.1,0.1,0.3,0.2,0.5,0.2c0.2,0,0.4-0.1,0.5-0.2c0.1-0.1,0.2-0.3,0.2-0.5c0-0.2-0.1-0.4-0.2-0.5
				C163.3,182.9,163.1,182.8,162.9,182.8z"/>
			<path class="st9" d="M164.9,182.8c-0.2,0-0.4,0.1-0.5,0.2c-0.1,0.1-0.2,0.3-0.2,0.5c0,0.2,0.1,0.4,0.2,0.5
				c0.1,0.1,0.3,0.2,0.5,0.2c0.2,0,0.4-0.1,0.5-0.2c0.1-0.1,0.2-0.3,0.2-0.5c0-0.2-0.1-0.4-0.2-0.5
				C165.3,182.9,165.1,182.8,164.9,182.8z"/>
			<path class="st9" d="M171,180.4h-1.5v-0.3c0-0.3,0-0.6,0.1-0.9c0.1-0.4,0.5-0.6,0.9-0.4c0.5,0.2,0.5,0.8,0.5,1.2c0,0,0,0,0,0.1
				V180.4z M154.4,180.4h-3v-1c0-0.7,0.3-1.2,0.7-1.7c0.9-0.9,2.3-0.8,2.3-0.8V180.4z M176.5,178c0,1-0.2,1.7-0.6,2.1
				c-0.2,0.2-0.5,0.3-0.9,0.3h-0.3h-0.1h-0.2v-1c0-1,0.1-1.7-0.8-2.6c-0.6-0.6-1.8-0.9-2.6-1c-0.7-0.1-1.3-0.3-2-0.6l-0.1-0.1v1.8
				h1.2c0,0,1.5-0.1,2.3,0.8c0.4,0.4,0.7,1,0.7,1.7v1.1h-0.2h-0.7v-0.3c0-1-0.2-1.7-0.7-2.1c-0.4-0.3-0.8-0.5-1.3-0.5
				c-0.5,0-0.9,0.2-1.3,0.5c-0.5,0.4-0.7,1.1-0.7,2.1v0.3h-1.3h-0.1h-1.2v-5.3l-1.2,0.6v4.7h-2.5h-0.1h-1.2v-5.3l-1.2,0.6v4.7h-3.7
				v-5.3l-0.1,0.1c-0.6,0.3-1.3,0.5-2,0.6c-0.8,0.1-1.9,0.4-2.6,1c-1,1-0.8,1.9-0.8,2.9v1.9h11.6h0.1h4.9h0.1h7.7h0.1h0.2
				c0.7,0,1.3-0.2,1.8-0.7c0.7-0.6,1-1.6,1-3v-7.2l-1.2,0.6C176.5,171.4,176.5,178,176.5,178z"/>
			<polygon class="st9" points="179.1,171.4 179.1,181.7 180.3,181.7 180.3,170.8 			"/>
			<path class="st9" d="M93.8,180.4h-3v-1c0-0.7,0.3-1.2,0.7-1.7c0.9-0.9,2.3-0.8,2.3-0.8V180.4z M95.1,175.1l-0.1,0.1
				c-0.6,0.3-1.3,0.5-2,0.6c-0.8,0.1-1.9,0.4-2.6,1c-1,1-0.8,1.6-0.8,2.6v1h-2.2v-9.7l-1.2,0.6v10.2h8.9l0-0.6V175.1z"/>
			<path class="st9" d="M100.3,180.4h-3v-1c0-0.7,0.3-1.2,0.7-1.7c0.9-0.9,2.3-0.8,2.3-0.8V180.4z M99.5,175.8
				c-0.8,0.1-1.9,0.4-2.6,1c-1,1-0.8,1.6-0.8,2.6v2.2h4.3v1.1c0,0.4-0.1,0.7-0.3,0.9c-0.2,0.3-0.6,0.4-1.2,0.4h-1.3l0.6,1.2h0.7
				c0.9,0,1.6-0.3,2.1-0.8c0.4-0.5,0.7-1,0.7-1.7c0,0,0-0.1,0-0.2v-1h0v-6.5l-0.1,0.1C100.8,175.5,100.1,175.7,99.5,175.8
				L99.5,175.8z"/>
			<path class="st9" d="M83.2,180.4h-3v-1c0-0.7,0.3-1.2,0.7-1.7c0.9-0.9,2.3-0.8,2.3-0.8V180.4z M82.3,175.8
				c-0.8,0.1-1.9,0.4-2.6,1c-1,1-0.8,1.6-0.8,2.6v1h-3.4c-0.3,0-0.5-0.1-0.7-0.3c-0.4-0.3-0.5-0.7-0.5-1.3V176l-1.2,0.6v2.2
				c0,0.9,0.3,1.6,0.9,2.2c0.4,0.4,0.9,0.6,1.5,0.7H79v0h5.4v-6.5l-0.1,0.1C83.7,175.5,83,175.7,82.3,175.8z"/>
			<path class="st9" d="M81.9,174.2c0.2,0,0.4-0.1,0.5-0.2c0.1-0.1,0.2-0.3,0.2-0.5c0-0.2-0.1-0.4-0.2-0.5c-0.1-0.1-0.3-0.2-0.5-0.2
				c-0.2,0-0.4,0.1-0.5,0.2c-0.1,0.1-0.2,0.3-0.2,0.5c0,0.2,0.1,0.4,0.2,0.5C81.6,174.1,81.7,174.2,81.9,174.2z"/>
			<path class="st9" d="M159.1,173h1.8c0.1-0.2,0.2-0.3,0.2-0.5h-0.7c-0.3,0-0.6-0.2-0.6-0.6c0-0.3,0.2-0.6,0.6-0.6
				c0.2,0,0.3,0.1,0.5,0.1c0.1-0.2,0.1-0.3,0.1-0.4c-0.1-0.1-0.4-0.1-0.6-0.1c-0.7,0-1.1,0.5-1.1,1.1c0,0.2,0.1,0.4,0.2,0.6h-0.6
				C158.9,172.5,159.1,173,159.1,173z"/>
			<path class="st9" d="M104,173h1.8c0.1-0.2,0.1-0.3,0.2-0.5h-0.7c-0.3,0-0.6-0.2-0.6-0.6c0-0.3,0.2-0.6,0.6-0.6
				c0.2,0,0.3,0.1,0.5,0.1c0-0.2,0.1-0.3,0.1-0.4c-0.1-0.1-0.4-0.1-0.6-0.1c-0.7,0-1.1,0.5-1.1,1.1c0,0.2,0.1,0.4,0.2,0.6h-0.6
				C103.8,172.5,104,173,104,173z"/>
			<path class="st9" d="M76.5,191.3h-1c-0.1,0-0.1,0-0.1-0.1v-0.2c0-0.1,0.1-0.1,0.1-0.1h1.5c0.1,0,0.1,0.1,0.1,0.2v1.5
				c0,0.3,0,0.3-0.1,0.4c-0.2,0.3-0.8,0.6-1.6,0.6c-1.7,0-2.5-1.3-2.5-2.6c0-1.6,1-2.6,2.4-2.6c1.2,0,1.8,0.7,1.8,1.1
				c0,0.2-0.2,0.3-0.3,0.3c-0.2,0-0.3-0.1-0.4-0.4c-0.1-0.2-0.4-0.6-1.1-0.6c-0.8,0-1.6,0.7-1.6,2.1c0,1.3,0.6,2.3,1.8,2.3
				c0.3,0,0.6-0.1,0.7-0.2c0.2-0.1,0.2-0.3,0.2-0.5C76.5,192.4,76.5,191.3,76.5,191.3z"/>
			<path class="st9" d="M79,191v2H81c0.1,0,0.1,0,0.1,0.1v0.2c0,0.1,0,0.1-0.1,0.1h-2.5c-0.1,0-0.1,0-0.1-0.1v-4.8
				c0-0.1,0-0.2,0.1-0.2H81c0.1,0,0.1,0,0.1,0.1c0,0.1,0,0.3,0,0.3c0,0.1,0,0.1-0.1,0.1H79v1.7h1.6c0.1,0,0.1,0,0.1,0.1
				c0,0.1,0,0.3,0,0.3c0,0.1-0.1,0.1-0.1,0.1C80.7,191,79,191,79,191z"/>
			<path class="st9" d="M85.5,192.2v-3.7c0-0.1,0-0.1,0.1-0.1H86c0.1,0,0.1,0,0.1,0.1v4.8c0,0.1,0,0.1-0.1,0.1h-0.3
				c-0.1,0-0.1,0-0.2-0.1l-2.9-4v3.9c0,0.1,0,0.1-0.1,0.1c0,0-0.3,0-0.4,0c-0.1,0-0.1,0-0.1-0.1v-4.8c0-0.1,0-0.1,0.1-0.1h0.4
				c0.1,0,0.1,0,0.2,0.1C82.8,188.4,85.5,192.2,85.5,192.2z"/>
			<path class="st9" d="M88,191v2H90c0.1,0,0.1,0,0.1,0.1v0.2c0,0.1-0.1,0.1-0.1,0.1h-2.5c-0.1,0-0.1,0-0.1-0.1v-4.8
				c0-0.1,0-0.2,0.1-0.2H90c0.1,0,0.1,0,0.1,0.1c0,0.1,0,0.3,0,0.3c0,0.1,0,0.1-0.1,0.1H88v1.7h1.6c0.1,0,0.1,0,0.1,0.1
				c0,0.1,0,0.3,0,0.3c0,0.1,0,0.1-0.1,0.1C89.7,191,88,191,88,191z"/>
			<path class="st9" d="M91.8,190.8c0.4,0,0.5,0,0.6,0c0.6-0.1,1.1-0.4,1.1-1.1c0-1-0.9-1-1.2-1c-0.2,0-0.3,0-0.5,0
				C91.8,188.7,91.8,190.8,91.8,190.8z M91.1,188.6c0-0.2,0-0.2,0.1-0.2c0.2-0.1,0.7-0.1,1.1-0.1c0.4,0,1,0,1.4,0.4
				c0.1,0.1,0.4,0.4,0.4,1c0,0.7-0.5,1.2-1.3,1.4l1.5,2.2c0,0.1,0.1,0.1,0.1,0.1c0,0.1-0.1,0.1-0.1,0.1h-0.5c-0.1,0-0.1,0-0.2-0.1
				l-1.2-1.9c-0.1-0.1-0.2-0.3-0.4-0.3c-0.2,0-0.2,0.2-0.2,0.3v1.9c0,0.1,0,0.2-0.1,0.2h-0.4c-0.1,0-0.1,0-0.1-0.1
				C91.1,193.3,91.1,188.6,91.1,188.6z"/>
			<path class="st9" d="M129.3,190.8c0.4,0,0.5,0,0.6,0c0.6-0.1,1.1-0.4,1.1-1.1c0-1-0.9-1-1.2-1c-0.2,0-0.3,0-0.5,0
				C129.3,188.8,129.3,190.8,129.3,190.8z M128.6,188.6c0-0.2,0-0.2,0.1-0.2c0.2-0.1,0.7-0.1,1.1-0.1c0.4,0,1,0,1.4,0.4
				c0.1,0.1,0.4,0.4,0.4,1c0,0.7-0.5,1.2-1.3,1.4l1.5,2.2c0,0,0.1,0.1,0.1,0.1c0,0.1-0.1,0.1-0.1,0.1h-0.5c-0.1,0-0.1,0-0.2-0.1
				l-1.2-1.9c-0.1-0.1-0.2-0.3-0.4-0.3c-0.2,0-0.2,0.2-0.2,0.3v1.9c0,0.1,0,0.2-0.1,0.2h-0.4c-0.1,0-0.1,0-0.1-0.1V188.6z"/>
			<path class="st9" d="M153.3,190.9c0.4,0,0.5,0,0.6,0c0.6-0.1,1.1-0.4,1.1-1.1c0-1-0.9-1-1.2-1c-0.2,0-0.3,0-0.5,0
				C153.3,188.8,153.3,190.9,153.3,190.9z M152.6,188.7c0-0.2,0-0.2,0.1-0.2c0.2-0.1,0.7-0.1,1.1-0.1c0.4,0,1,0,1.4,0.4
				c0.1,0.1,0.4,0.4,0.4,1c0,0.7-0.5,1.2-1.3,1.4l1.5,2.2c0,0.1,0.1,0.1,0.1,0.1c0,0.1-0.1,0.1-0.1,0.1h-0.5c-0.1,0-0.1,0-0.2-0.1
				l-1.2-1.9c-0.1-0.1-0.2-0.3-0.4-0.3c-0.2,0-0.2,0.2-0.2,0.3v1.9c0,0.1,0,0.2-0.1,0.2h-0.4c-0.1,0-0.1,0-0.1-0.1V188.7z"/>
			<path class="st9" d="M97.3,191l-0.6-1.7l-0.6,1.7H97.3z M97.5,191.4h-1.5l-0.7,1.9c0,0.1-0.1,0.1-0.2,0.1h-0.3c0,0-0.1,0-0.1-0.1
				l0-0.1l1.9-4.8c0-0.1,0.1-0.1,0.1-0.1H97c0.1,0,0.1,0,0.1,0.1l1.9,4.8c0,0,0,0.1,0,0.1c0,0.1,0,0.1-0.1,0.1h-0.5
				c-0.1,0-0.1,0-0.2-0.1C98.2,193.3,97.5,191.4,97.5,191.4z"/>
			<path class="st9" d="M107.4,191.1l-0.6-1.7l-0.6,1.7H107.4z M107.6,191.5H106l-0.7,1.9c0,0.1-0.1,0.1-0.2,0.1h-0.3
				c0,0-0.1,0-0.1-0.1l0-0.1l1.9-4.8c0-0.1,0.1-0.1,0.1-0.1h0.3c0.1,0,0.1,0,0.1,0.1l1.9,4.8c0,0,0,0.1,0,0.1c0,0.1,0,0.1-0.1,0.1
				h-0.5c-0.1,0-0.1,0-0.2-0.1C108.3,193.4,107.6,191.5,107.6,191.5z"/>
			<path class="st9" d="M100.3,192.9h1.9c0.1,0,0.1,0,0.1,0.1v0.3c0,0.1-0.1,0.1-0.1,0.1h-2.5c-0.1,0-0.1,0-0.1-0.1v-4.8
				c0-0.1,0-0.1,0.1-0.1h0.5c0.1,0,0.1,0,0.1,0.1C100.3,188.4,100.3,192.9,100.3,192.9z"/>
			<path class="st9" d="M118,188.4h-1.7h-0.5h-1.7c-0.1,0-0.1,0-0.1,0.1v0.3c0,0.1,0,0.1,0.1,0.1h1.6v4.5c0,0.1,0,0.1,0.1,0.1h0h0.5
				h0c0.1,0,0.1,0,0.1-0.1v-4.5h1.6c0.1,0,0.1,0,0.1-0.1v-0.3C118.1,188.4,118.1,188.4,118,188.4z"/>
			<path class="st9" d="M137.7,188.4h-1.7h-0.5h-1.7c-0.1,0-0.1,0-0.1,0.1v0.3c0,0.1,0,0.1,0.1,0.1h1.6v4.5c0,0.1,0,0.1,0.1,0.1h0
				h0.5h0c0.1,0,0.1,0,0.1-0.1v-4.5h1.6c0.1,0,0.1,0,0.1-0.1v-0.3C137.8,188.4,137.8,188.4,137.7,188.4z"/>
			<path class="st9" d="M119.2,192.9c0.1-0.1,0.3-0.2,0.4-0.2v-4.2c0-0.1,0-0.1-0.1-0.1H119c-0.1,0-0.1,0-0.1,0.1v4.6
				C119,193.1,119.1,193,119.2,192.9z"/>
			<path class="st9" d="M119.3,188.9c-0.1,0.1-0.3,0.2-0.4,0.2v4.2c0,0.1,0,0.1,0.1,0.1h0.5c0.1,0,0.1,0,0.1-0.1v-4.6
				C119.5,188.8,119.4,188.9,119.3,188.9z"/>
			<path class="st9" d="M122.3,192.9c0.1-0.1,0.3-0.2,0.4-0.2v-4.2c0-0.1,0-0.1-0.1-0.1h-0.5c-0.1,0-0.1,0-0.1,0.1v4.6
				C122.1,193.1,122.2,193,122.3,192.9z"/>
			<path class="st9" d="M122.5,188.9c-0.1,0.1-0.3,0.2-0.4,0.2v4.2c0,0.1,0,0.1,0.1,0.1h0.5c0.1,0,0.1,0,0.1-0.1v-4.6
				C122.6,188.8,122.6,188.9,122.5,188.9z"/>
			<path class="st9" d="M121.9,191.1h-2.5c0,0.1,0,0.2,0,0.4h2.5c0.3,0,0.3,0,0.3-0.1v-0.2C122.2,191.1,122.1,191.1,121.9,191.1z"/>
			<path class="st9" d="M133.2,193.3c0,0.1,0,0.1-0.1,0.1h-0.4c-0.1,0-0.1,0-0.1-0.1v-4.8c0-0.1,0-0.2,0.1-0.1h0.4
				c0.1,0,0.1,0,0.1,0.1V193.3z"/>
			<path class="st9" d="M140.3,193.3c0,0.1,0,0.1-0.1,0.1h-0.4c-0.1,0-0.1,0-0.1-0.1v-2.1c0-0.1,0-0.2,0.1-0.1h0.4
				c0.1,0,0.1,0,0.1,0.1V193.3z"/>
			<path class="st9" d="M144.8,191v2.3c0,0.1,0,0.1-0.1,0.1h-0.4c-0.1,0-0.2,0-0.2-0.1v-4.8c0-0.1,0-0.2,0.1-0.2h2.5
				c0.1,0,0.1,0,0.1,0.1c0,0.1,0,0.2,0,0.3c0,0.1,0,0.1-0.1,0.1h-1.9v1.7h1.6c0.1,0,0.1,0,0.1,0.1c0,0.1,0,0.2,0,0.3
				c0,0.1,0,0.1-0.1,0.1C146.4,191,144.8,191,144.8,191z"/>
			<path class="st9" d="M149.2,188.7c-0.2,0-0.5,0.1-0.7,0.2c-0.7,0.4-0.9,1.2-0.9,2c0,0.3,0,0.5,0.1,0.8c0.2,1,0.8,1.5,1.5,1.5
				c0.4,0,0.9-0.2,1.2-0.7c0.3-0.5,0.4-1.2,0.4-1.6C150.7,189.1,149.7,188.7,149.2,188.7z M149.2,193.6c-1.3,0-2.3-1.1-2.3-2.6
				c0-1.3,0.7-2.7,2.3-2.7c1.5,0,2.2,1.2,2.3,2.5C151.6,192.4,150.6,193.6,149.2,193.6z"/>
			<path class="st9" d="M125.7,188.7c-0.2,0-0.5,0.1-0.7,0.2c-0.7,0.4-0.9,1.2-0.9,2c0,0.3,0,0.5,0.1,0.8c0.2,1,0.8,1.5,1.5,1.5
				c0.4,0,0.9-0.2,1.2-0.7c0.3-0.5,0.4-1.2,0.4-1.6C127.2,189.1,126.2,188.7,125.7,188.7z M125.7,193.6c-1.3,0-2.3-1.1-2.3-2.6
				c0-1.3,0.7-2.7,2.3-2.7c1.5,0,2.2,1.2,2.3,2.5C128,192.4,127.1,193.6,125.7,193.6z"/>
			<path class="st9" d="M113.3,191.7L113.3,191.7v-1.1v-1.1v-1.1c0-0.1,0-0.1-0.1-0.1h-0.5c-0.1,0-0.1,0-0.1,0.1v1.1v1.1v0.9
				c0,0,0,0,0,0c0,0,0,0.1,0,0.1c0,0.3,0,0.7-0.3,1.1c-0.3,0.3-0.7,0.5-1,0.5c-0.5,0-1.1-0.3-1.2-1c0-0.2-0.1-0.3-0.1-0.5l0,0v0v0
				v-1v-1.1v-1.1c0-0.1,0-0.1-0.1-0.1h-0.5c-0.1,0-0.1,0-0.1,0.1v1.1v1.1v1.1c0,0,0,0,0,0c0,0,0,0,0,0c0,1.1,0.9,1.9,2,1.9
				C112.5,193.7,113.3,192.8,113.3,191.7z"/>
			<path class="st9" d="M160.4,191.1l-0.6-1.7l-0.6,1.7H160.4z M160.6,191.5H159l-0.7,1.9c0,0.1-0.1,0.1-0.2,0.1h-0.3
				c0,0-0.1,0-0.1-0.1l0-0.1l1.9-4.8c0-0.1,0.1-0.1,0.1-0.1h0.3c0.1,0,0.1,0,0.1,0.1l1.9,4.8c0,0,0,0.1,0,0.1c0,0.1,0,0.1-0.1,0.1
				h-0.5c-0.1,0-0.1,0-0.2-0.1L160.6,191.5z"/>
			<path class="st9" d="M164.7,189.8l-1.2,3.6c0,0.1,0,0.1-0.1,0.1c-0.2,0-0.3,0-0.3-0.1l-1.4-4.8c0-0.1,0-0.1,0-0.1
				c0-0.1,0.1-0.1,0.1-0.1h0.5c0.1,0,0.1,0,0.2,0.1l1,3.7l1.2-3.6c0.1-0.2,0.1-0.2,0.1-0.2h0.2c0,0,0.1,0,0.1,0.1l1.2,3.7l1-3.7
				c0-0.1,0.1-0.1,0.2-0.1h0.4c0,0,0.1,0,0.1,0.1c0,0,0,0,0,0.1l-1.4,4.8c0,0.1,0,0.1-0.1,0.1H166c-0.1,0-0.1,0-0.1-0.1
				C165.9,193.4,164.7,189.8,164.7,189.8z"/>
			<path class="st9" d="M171.6,189.3c-0.3-0.5-0.8-0.6-1.2-0.6c-0.5,0-0.9,0.3-1.2,0.7c-0.2,0.3-0.4,0.8-0.4,1.5
				c0,1.5,0.8,2.2,1.6,2.2c0.5,0,0.9-0.3,1.2-0.7c0.3-0.5,0.4-1,0.4-1.5C172,190.3,171.9,189.8,171.6,189.3z M171,193.5
				c0.1,0.2,0.1,0.5,0.5,0.8c0.2,0.2,0.6,0.4,1.2,0.6c0.2,0,0.3,0.1,0.3,0.2c0,0,0,0.1-0.2,0.1c-0.1,0-0.6-0.1-1-0.2
				c-0.6-0.2-1.3-0.6-1.7-1.4c-1.4-0.1-2.1-1.2-2.1-2.6c0-1.6,1-2.7,2.4-2.7c1.5,0,2.4,1.2,2.4,2.6C172.8,192.3,172,193.2,171,193.5
				C171,193.5,171,193.5,171,193.5z"/>
			<path class="st9" d="M175.7,191.1l-0.6-1.7l-0.6,1.7H175.7z M175.9,191.5h-1.6l-0.7,1.9c0,0.1-0.1,0.1-0.2,0.1h-0.3
				c0,0-0.1,0-0.1-0.1l0-0.1l1.9-4.8c0-0.1,0.1-0.1,0.1-0.1h0.3c0,0,0.1,0,0.1,0.1l1.9,4.8c0,0,0,0.1,0,0.1c0,0.1,0,0.1-0.1,0.1
				h-0.5c-0.1,0-0.1,0-0.2-0.1L175.9,191.5L175.9,191.5z"/>
			<path class="st9" d="M178.7,191v2.3c0,0.1,0,0.1-0.1,0.1h-0.4c-0.1,0-0.2,0-0.2-0.1v-4.8c0-0.1,0-0.2,0.1-0.2h2.5
				c0.1,0,0.1,0,0.1,0.1c0,0.1,0,0.2,0,0.3c0,0.1,0,0.1-0.1,0.1h-1.9v1.7h1.6c0.1,0,0.1,0,0.1,0.1c0,0.1,0,0.2,0,0.3
				c0,0.1,0,0.1-0.1,0.1C180.3,191,178.7,191,178.7,191z"/>
			<path class="st9" d="M141,188.5l-0.9,2.4l-1-2.3c0-0.1,0-0.2-0.2-0.1h-0.5c-0.1,0-0.1,0-0.1,0.1c0,0,0,0,0,0.1l1.5,3.4
				c0,0.1,0.1,0.1,0.3,0.1c0.1,0,0.1,0,0.1-0.1l1.3-3.5c0-0.1,0-0.1-0.1-0.1L141,188.5C141,188.4,141,188.4,141,188.5z"/>
		</g>
	</g>
</g>
</svg>
